<svg id="svg" version="1.1" xmlns="http://www.w3.org/2000/svg"
    xmlns:xlink="http://www.w3.org/1999/xlink" width="400" height="400" viewBox="0, 0, 400,400">
    <g id="svgg">
        <path id="path0"
            d="M195.200 84.231 C 192.670 84.506,190.060 84.845,189.400 84.984 C 187.635 85.357,185.115 86.046,184.200 86.405 C 183.760 86.578,182.770 86.937,182.000 87.203 C 179.773 87.971,173.875 90.924,173.025 91.696 C 172.598 92.083,172.105 92.400,171.929 92.400 C 171.348 92.400,166.755 96.082,164.243 98.562 C 152.336 110.317,148.082 122.419,148.479 143.400 L 148.600 149.800 160.400 149.800 L 172.200 149.800 172.426 139.600 C 172.550 133.990,172.790 128.950,172.959 128.400 C 173.309 127.262,173.928 125.725,174.447 124.705 C 174.641 124.323,174.800 123.819,174.800 123.583 C 174.800 119.944,185.374 110.639,191.500 108.886 C 192.435 108.619,193.875 108.207,194.700 107.971 C 197.209 107.254,207.661 107.928,208.227 108.844 C 208.348 109.040,208.778 109.200,209.183 109.200 C 210.053 109.200,213.670 111.053,216.087 112.737 C 222.303 117.069,227.555 126.136,227.619 132.646 C 227.672 137.971,228.702 138.437,240.135 138.305 L 249.271 138.200 250.291 137.014 C 253.144 133.693,249.379 117.100,243.917 108.928 C 243.303 108.008,242.800 107.063,242.800 106.828 C 242.800 106.593,242.659 106.400,242.486 106.400 C 242.314 106.400,241.866 105.881,241.491 105.246 C 239.928 102.600,233.988 96.521,230.800 94.304 C 229.810 93.616,228.910 92.927,228.800 92.773 C 228.314 92.092,222.036 88.805,219.000 87.642 C 217.680 87.136,216.240 86.580,215.800 86.407 C 213.417 85.467,208.408 84.479,204.600 84.197 C 202.840 84.067,201.040 83.908,200.600 83.846 C 200.160 83.783,197.730 83.956,195.200 84.231 M135.600 162.044 C 130.190 162.551,121.200 168.435,121.200 171.469 C 121.200 171.761,121.020 172.000,120.800 172.000 C 120.580 172.000,120.400 172.324,120.400 172.720 C 120.400 173.116,120.251 173.611,120.070 173.820 C 118.621 175.486,118.600 176.288,118.600 231.200 C 118.600 276.922,118.684 284.859,119.184 286.400 C 120.936 291.803,124.609 296.027,129.800 298.608 L 133.000 300.200 198.978 300.306 C 271.824 300.423,266.794 300.588,271.600 297.916 C 273.704 296.746,277.972 292.971,277.991 292.262 C 277.996 292.076,278.337 291.446,278.748 290.862 C 279.159 290.278,279.924 288.630,280.448 287.200 L 281.400 284.600 281.400 231.200 C 281.400 185.373,281.317 177.545,280.814 176.000 C 278.739 169.632,274.267 164.981,268.200 162.885 C 265.792 162.053,143.762 161.279,135.600 162.044 M204.265 198.159 C 217.656 201.725,222.188 217.997,212.542 227.877 C 210.138 230.339,210.112 230.464,211.128 234.600 C 211.344 235.480,211.728 237.100,211.980 238.200 C 212.233 239.300,212.589 240.830,212.772 241.600 C 212.955 242.370,213.483 244.620,213.946 246.600 C 214.409 248.580,215.336 252.540,216.005 255.400 C 218.391 265.599,219.751 264.800,200.000 264.800 C 180.249 264.800,181.609 265.599,183.995 255.400 C 184.664 252.540,185.591 248.580,186.054 246.600 C 187.298 241.278,187.563 240.154,187.961 238.500 C 190.036 229.871,190.064 230.516,187.499 227.951 C 174.936 215.388,187.190 193.613,204.265 198.159 "
            stroke="none" fill="#fbfbfb" fill-rule="evenodd"></path>
        <path id="path1"
            d="M184.000 12.395 C 183.670 12.611,181.926 12.791,180.124 12.794 C 178.322 12.797,176.736 12.980,176.600 13.200 C 176.464 13.420,175.114 13.600,173.600 13.600 C 172.086 13.600,170.736 13.780,170.600 14.000 C 170.464 14.220,169.474 14.400,168.400 14.400 C 167.326 14.400,166.336 14.580,166.200 14.800 C 166.064 15.020,165.074 15.200,164.000 15.200 C 162.926 15.200,161.936 15.380,161.800 15.600 C 161.664 15.820,160.843 16.000,159.976 16.000 C 159.109 16.000,158.400 16.180,158.400 16.400 C 158.400 16.620,157.601 16.800,156.624 16.800 C 155.647 16.800,154.736 16.980,154.600 17.200 C 154.464 17.420,153.823 17.600,153.176 17.600 C 152.529 17.600,152.000 17.780,152.000 18.000 C 152.000 18.220,151.381 18.400,150.624 18.400 C 149.867 18.400,149.136 18.580,149.000 18.800 C 148.864 19.020,148.133 19.200,147.376 19.200 C 146.619 19.200,146.000 19.380,146.000 19.600 C 146.000 19.820,145.460 20.000,144.800 20.000 C 144.140 20.000,143.600 20.180,143.600 20.400 C 143.600 20.620,143.060 20.800,142.400 20.800 C 141.740 20.800,141.200 20.980,141.200 21.200 C 141.200 21.420,140.660 21.600,140.000 21.600 C 139.340 21.600,138.800 21.780,138.800 22.000 C 138.800 22.220,138.260 22.400,137.600 22.400 C 136.940 22.400,136.400 22.580,136.400 22.800 C 136.400 23.020,135.950 23.200,135.400 23.200 C 134.850 23.200,134.400 23.380,134.400 23.600 C 134.400 23.820,133.950 24.000,133.400 24.000 C 132.850 24.000,132.400 24.180,132.400 24.400 C 132.400 24.620,132.038 24.800,131.595 24.800 C 131.152 24.800,130.477 24.962,130.095 25.160 C 128.720 25.873,124.189 27.602,123.700 27.601 C 123.425 27.601,123.200 27.780,123.200 28.000 C 123.200 28.220,122.924 28.400,122.586 28.400 C 121.837 28.400,111.854 33.225,111.667 33.678 C 111.593 33.855,111.228 34.000,110.855 34.000 C 110.482 34.000,109.917 34.360,109.600 34.800 C 109.283 35.240,108.703 35.600,108.312 35.600 C 107.920 35.600,107.600 35.780,107.600 36.000 C 107.600 36.220,107.240 36.400,106.800 36.400 C 106.360 36.400,106.000 36.580,106.000 36.800 C 106.000 37.020,105.680 37.200,105.288 37.200 C 104.897 37.200,104.317 37.560,104.000 38.000 C 103.683 38.440,103.103 38.800,102.712 38.800 C 102.320 38.800,102.000 38.980,102.000 39.200 C 102.000 39.420,101.764 39.600,101.475 39.600 C 101.187 39.600,100.564 39.960,100.092 40.400 C 99.620 40.840,99.038 41.200,98.800 41.200 C 98.561 41.200,98.149 41.382,97.883 41.604 C 97.617 41.826,95.870 43.030,94.000 44.281 C 92.130 45.532,90.362 46.790,90.071 47.077 C 89.781 47.365,89.395 47.600,89.214 47.600 C 89.033 47.600,88.307 48.140,87.600 48.800 C 86.893 49.460,86.160 50.000,85.971 50.000 C 85.782 50.000,84.997 50.630,84.227 51.400 C 83.457 52.170,82.669 52.800,82.477 52.800 C 82.285 52.800,81.301 53.565,80.291 54.500 C 78.048 56.577,74.804 59.454,72.418 61.484 C 70.119 63.440,63.440 70.119,61.484 72.418 C 59.454 74.804,56.577 78.048,54.500 80.291 C 53.565 81.301,52.800 82.285,52.800 82.477 C 52.800 82.669,52.170 83.457,51.400 84.227 C 50.630 84.997,50.000 85.782,50.000 85.971 C 50.000 86.160,49.460 86.893,48.800 87.600 C 48.140 88.307,47.600 89.033,47.600 89.214 C 47.600 89.395,47.365 89.781,47.077 90.071 C 46.790 90.362,45.532 92.130,44.281 94.000 C 43.030 95.870,41.826 97.617,41.604 97.883 C 41.382 98.149,41.200 98.604,41.200 98.895 C 41.200 99.186,40.840 99.683,40.400 100.000 C 39.960 100.317,39.600 100.897,39.600 101.288 C 39.600 101.680,39.420 102.000,39.200 102.000 C 38.980 102.000,38.800 102.236,38.800 102.525 C 38.800 102.813,38.440 103.436,38.000 103.908 C 37.560 104.380,37.200 105.044,37.200 105.383 C 37.200 105.722,37.020 106.000,36.800 106.000 C 36.580 106.000,36.400 106.360,36.400 106.800 C 36.400 107.240,36.241 107.600,36.047 107.600 C 35.852 107.600,35.593 107.915,35.471 108.300 C 35.241 109.027,33.966 111.250,33.579 111.600 C 33.078 112.052,28.400 121.939,28.400 122.544 C 28.400 122.905,28.220 123.200,28.000 123.200 C 27.780 123.200,27.600 123.436,27.600 123.725 C 27.600 124.014,27.235 125.005,26.790 125.927 C 26.344 126.850,25.871 128.144,25.740 128.802 C 25.608 129.461,25.343 130.000,25.150 130.000 C 24.957 130.000,24.800 130.540,24.800 131.200 C 24.800 131.860,24.620 132.400,24.400 132.400 C 24.180 132.400,24.000 132.749,24.000 133.176 C 24.000 133.603,23.820 134.064,23.600 134.200 C 23.380 134.336,23.200 134.887,23.200 135.424 C 23.200 135.961,23.020 136.400,22.800 136.400 C 22.580 136.400,22.400 136.940,22.400 137.600 C 22.400 138.260,22.220 138.800,22.000 138.800 C 21.780 138.800,21.600 139.340,21.600 140.000 C 21.600 140.660,21.420 141.200,21.200 141.200 C 20.980 141.200,20.800 141.740,20.800 142.400 C 20.800 143.060,20.620 143.600,20.400 143.600 C 20.180 143.600,20.000 144.039,20.000 144.576 C 20.000 145.113,19.820 145.664,19.600 145.800 C 19.380 145.936,19.200 146.667,19.200 147.424 C 19.200 148.181,19.020 148.800,18.800 148.800 C 18.580 148.800,18.400 149.419,18.400 150.176 C 18.400 150.933,18.220 151.664,18.000 151.800 C 17.780 151.936,17.600 152.566,17.600 153.200 C 17.600 153.834,17.420 154.464,17.200 154.600 C 16.980 154.736,16.800 155.647,16.800 156.624 C 16.800 157.601,16.620 158.400,16.400 158.400 C 16.180 158.400,16.000 159.109,16.000 159.976 C 16.000 160.843,15.820 161.664,15.600 161.800 C 15.380 161.936,15.200 162.811,15.200 163.744 C 15.200 164.677,15.037 165.611,14.837 165.820 C 14.637 166.029,14.372 167.100,14.248 168.200 C 14.124 169.300,13.831 171.550,13.597 173.200 C 12.478 181.091,12.316 184.479,12.316 200.000 C 12.316 215.521,12.478 218.909,13.597 226.800 C 13.831 228.450,14.124 230.700,14.248 231.800 C 14.372 232.900,14.637 233.971,14.837 234.180 C 15.037 234.389,15.200 235.323,15.200 236.256 C 15.200 237.189,15.380 238.064,15.600 238.200 C 15.820 238.336,16.000 239.157,16.000 240.024 C 16.000 240.891,16.180 241.600,16.400 241.600 C 16.620 241.600,16.800 242.399,16.800 243.376 C 16.800 244.353,16.980 245.264,17.200 245.400 C 17.420 245.536,17.600 246.166,17.600 246.800 C 17.600 247.434,17.780 248.064,18.000 248.200 C 18.220 248.336,18.400 249.067,18.400 249.824 C 18.400 250.581,18.580 251.200,18.800 251.200 C 19.020 251.200,19.200 251.830,19.200 252.600 C 19.200 253.370,19.380 254.000,19.600 254.000 C 19.820 254.000,20.000 254.540,20.000 255.200 C 20.000 255.860,20.180 256.400,20.400 256.400 C 20.620 256.400,20.800 256.940,20.800 257.600 C 20.800 258.260,20.980 258.800,21.200 258.800 C 21.420 258.800,21.600 259.340,21.600 260.000 C 21.600 260.660,21.780 261.200,22.000 261.200 C 22.220 261.200,22.400 261.740,22.400 262.400 C 22.400 263.060,22.580 263.600,22.800 263.600 C 23.020 263.600,23.200 264.039,23.200 264.576 C 23.200 265.113,23.380 265.664,23.600 265.800 C 23.820 265.936,24.000 266.397,24.000 266.824 C 24.000 267.251,24.180 267.600,24.400 267.600 C 24.620 267.600,24.800 268.140,24.800 268.800 C 24.800 269.460,24.957 270.000,25.150 270.000 C 25.343 270.000,25.608 270.539,25.740 271.198 C 25.871 271.856,26.344 273.150,26.790 274.073 C 27.235 274.995,27.600 275.986,27.600 276.275 C 27.600 276.564,27.780 276.800,28.000 276.800 C 28.220 276.800,28.399 277.115,28.398 277.500 C 28.395 278.119,33.049 287.889,33.589 288.400 C 33.978 288.768,35.247 290.992,35.471 291.700 C 35.593 292.085,35.852 292.400,36.047 292.400 C 36.241 292.400,36.400 292.760,36.400 293.200 C 36.400 293.640,36.580 294.000,36.800 294.000 C 37.020 294.000,37.200 294.278,37.200 294.617 C 37.200 294.956,37.560 295.620,38.000 296.092 C 38.440 296.564,38.800 297.187,38.800 297.475 C 38.800 297.764,38.980 298.000,39.200 298.000 C 39.420 298.000,39.600 298.320,39.600 298.712 C 39.600 299.103,39.960 299.683,40.400 300.000 C 40.840 300.317,41.200 300.814,41.200 301.105 C 41.200 301.396,41.382 301.851,41.604 302.117 C 41.826 302.383,43.030 304.130,44.281 306.000 C 45.532 307.870,46.790 309.638,47.077 309.929 C 47.365 310.219,47.600 310.605,47.600 310.786 C 47.600 310.967,48.140 311.693,48.800 312.400 C 49.460 313.107,50.000 313.840,50.000 314.029 C 50.000 314.218,50.630 315.003,51.400 315.773 C 52.170 316.543,52.800 317.331,52.800 317.523 C 52.800 317.715,53.565 318.699,54.500 319.709 C 56.331 321.687,59.056 324.746,61.484 327.551 C 63.791 330.215,68.710 335.178,71.462 337.617 C 72.816 338.818,74.944 340.700,76.190 341.800 C 77.435 342.900,79.281 344.565,80.291 345.500 C 81.301 346.435,82.296 347.200,82.503 347.200 C 82.710 347.200,83.383 347.740,84.000 348.400 C 84.617 349.060,85.292 349.600,85.501 349.600 C 85.710 349.600,86.446 350.140,87.137 350.800 C 87.828 351.460,88.529 352.000,88.696 352.000 C 88.863 352.001,89.523 352.451,90.162 353.000 C 90.801 353.550,91.464 354.000,91.634 354.000 C 91.804 354.000,92.181 354.225,92.471 354.500 C 93.341 355.323,95.724 356.978,96.900 357.576 C 97.505 357.883,98.000 358.285,98.000 358.468 C 98.000 358.650,98.360 358.800,98.800 358.800 C 99.240 358.800,99.600 358.980,99.600 359.200 C 99.600 359.420,99.870 359.600,100.200 359.600 C 100.530 359.600,100.800 359.780,100.800 360.000 C 100.800 360.220,101.070 360.400,101.400 360.400 C 101.730 360.400,102.000 360.580,102.000 360.800 C 102.000 361.020,102.320 361.200,102.712 361.200 C 103.103 361.200,103.683 361.560,104.000 362.000 C 104.317 362.440,104.897 362.800,105.288 362.800 C 105.680 362.800,106.000 362.980,106.000 363.200 C 106.000 363.420,106.360 363.600,106.800 363.600 C 107.240 363.600,107.600 363.780,107.600 364.000 C 107.600 364.220,107.878 364.400,108.217 364.400 C 108.556 364.400,109.220 364.760,109.692 365.200 C 110.164 365.640,110.787 366.000,111.075 366.000 C 111.364 366.000,111.600 366.180,111.600 366.400 C 111.600 366.620,111.945 366.800,112.367 366.800 C 112.788 366.800,113.193 366.944,113.267 367.120 C 113.449 367.557,120.270 370.800,121.007 370.800 C 121.333 370.800,121.600 370.980,121.600 371.200 C 121.600 371.420,121.924 371.600,122.320 371.600 C 122.716 371.600,123.211 371.752,123.420 371.938 C 123.629 372.123,125.060 372.771,126.600 373.377 C 128.140 373.984,129.713 374.642,130.095 374.840 C 130.477 375.038,131.152 375.200,131.595 375.200 C 132.038 375.200,132.400 375.380,132.400 375.600 C 132.400 375.820,132.850 376.000,133.400 376.000 C 133.950 376.000,134.400 376.180,134.400 376.400 C 134.400 376.620,134.850 376.800,135.400 376.800 C 135.950 376.800,136.400 376.980,136.400 377.200 C 136.400 377.420,136.940 377.600,137.600 377.600 C 138.260 377.600,138.800 377.780,138.800 378.000 C 138.800 378.220,139.340 378.400,140.000 378.400 C 140.660 378.400,141.200 378.580,141.200 378.800 C 141.200 379.020,141.740 379.200,142.400 379.200 C 143.060 379.200,143.600 379.380,143.600 379.600 C 143.600 379.820,144.140 380.000,144.800 380.000 C 145.460 380.000,146.000 380.180,146.000 380.400 C 146.000 380.620,146.619 380.800,147.376 380.800 C 148.133 380.800,148.864 380.980,149.000 381.200 C 149.136 381.420,149.867 381.600,150.624 381.600 C 151.381 381.600,152.000 381.760,152.000 381.956 C 152.000 382.306,153.337 382.620,156.700 383.059 C 157.635 383.181,158.400 383.424,158.400 383.600 C 158.400 383.905,159.288 384.074,163.800 384.631 C 164.900 384.767,165.971 385.040,166.180 385.239 C 166.389 385.437,167.514 385.600,168.680 385.600 C 169.846 385.600,170.800 385.780,170.800 386.000 C 170.800 386.227,171.973 386.400,173.520 386.400 C 175.016 386.400,176.411 386.567,176.620 386.772 C 177.589 387.720,216.000 388.443,216.000 387.513 C 216.000 387.236,196.336 367.342,172.302 343.304 C 142.774 313.772,128.864 299.598,129.402 299.594 C 130.043 299.589,130.085 299.515,129.619 299.220 C 129.300 299.018,128.895 298.942,128.719 299.050 C 128.544 299.158,128.400 299.098,128.400 298.915 C 128.400 298.732,127.763 298.239,126.984 297.820 C 123.180 295.771,118.989 289.404,118.037 284.227 C 117.318 280.320,117.449 180.980,118.177 177.544 C 119.542 171.103,123.265 166.261,129.108 163.330 C 133.077 161.338,134.363 161.144,145.532 160.853 L 155.263 160.600 152.034 156.022 C 150.049 153.208,148.971 151.341,149.236 151.178 C 149.486 151.023,149.295 150.814,148.786 150.680 L 147.904 150.450 148.120 138.925 C 148.381 125.035,149.115 121.097,152.913 113.200 C 165.560 86.910,199.262 75.243,223.398 88.799 C 224.109 89.198,225.120 89.767,225.645 90.062 C 226.170 90.358,226.690 90.690,226.800 90.801 C 226.910 90.911,227.492 91.255,228.093 91.565 C 228.695 91.874,229.505 92.414,229.894 92.764 C 230.282 93.114,231.321 93.926,232.200 94.570 C 234.064 95.932,240.800 102.603,240.800 103.086 C 240.800 103.463,380.975 243.691,382.224 244.563 C 383.012 245.114,383.051 245.068,383.145 243.469 C 383.199 242.551,383.413 241.629,383.621 241.420 C 383.830 241.211,384.000 240.367,384.000 239.544 C 384.000 238.721,384.180 237.936,384.400 237.800 C 384.620 237.664,384.800 236.764,384.800 235.800 C 384.800 234.836,384.980 233.936,385.200 233.800 C 385.420 233.664,385.600 232.609,385.600 231.456 C 385.600 230.303,385.765 229.189,385.968 228.980 C 386.170 228.771,386.435 227.430,386.557 226.000 C 386.680 224.570,386.988 221.510,387.242 219.200 C 387.851 213.681,387.851 186.319,387.242 180.800 C 386.988 178.490,386.680 175.430,386.557 174.000 C 386.435 172.570,386.170 171.229,385.968 171.020 C 385.765 170.811,385.600 169.697,385.600 168.544 C 385.600 167.391,385.420 166.336,385.200 166.200 C 384.980 166.064,384.800 165.164,384.800 164.200 C 384.800 163.236,384.620 162.336,384.400 162.200 C 384.180 162.064,384.000 161.254,384.000 160.400 C 384.000 159.546,383.820 158.736,383.600 158.600 C 383.380 158.464,383.200 157.643,383.200 156.776 C 383.200 155.909,383.020 155.200,382.800 155.200 C 382.580 155.200,382.400 154.480,382.400 153.600 C 382.400 152.720,382.220 152.000,382.000 152.000 C 381.780 152.000,381.600 151.458,381.600 150.795 C 381.600 150.132,381.438 149.277,381.239 148.895 C 381.040 148.513,380.663 147.390,380.400 146.400 C 380.137 145.410,379.760 144.287,379.561 143.905 C 379.362 143.523,379.200 142.758,379.200 142.205 C 379.200 141.652,379.020 141.200,378.800 141.200 C 378.580 141.200,378.400 140.660,378.400 140.000 C 378.400 139.340,378.220 138.800,378.000 138.800 C 377.780 138.800,377.600 138.361,377.600 137.824 C 377.600 137.287,377.420 136.736,377.200 136.600 C 376.980 136.464,376.800 136.003,376.800 135.576 C 376.800 135.149,376.620 134.800,376.400 134.800 C 376.180 134.800,376.000 134.260,376.000 133.600 C 376.000 132.940,375.820 132.400,375.600 132.400 C 375.380 132.400,375.200 132.038,375.200 131.595 C 375.200 131.152,375.035 130.477,374.834 130.095 C 374.633 129.713,374.074 128.410,373.593 127.200 C 372.159 123.600,371.645 122.473,368.662 116.400 C 367.095 113.210,365.675 110.540,365.507 110.467 C 365.338 110.393,365.200 110.078,365.200 109.767 C 365.200 109.455,365.020 109.200,364.800 109.200 C 364.580 109.200,364.400 108.840,364.400 108.400 C 364.400 107.960,364.220 107.600,364.000 107.600 C 363.780 107.600,363.600 107.240,363.600 106.800 C 363.600 106.360,363.420 106.000,363.200 106.000 C 362.980 106.000,362.800 105.764,362.800 105.475 C 362.800 105.187,362.440 104.564,362.000 104.092 C 361.560 103.620,361.200 102.956,361.200 102.617 C 361.200 102.278,361.020 102.000,360.800 102.000 C 360.580 102.000,360.400 101.764,360.400 101.475 C 360.400 101.187,360.040 100.564,359.600 100.092 C 359.160 99.620,358.800 99.130,358.800 99.004 C 358.800 98.692,355.150 93.133,354.511 92.471 C 354.230 92.181,354.000 91.784,354.000 91.590 C 354.000 91.395,353.550 90.786,353.000 90.236 C 352.450 89.686,352.000 89.082,352.000 88.894 C 352.000 88.705,351.680 88.202,351.289 87.775 C 350.898 87.349,350.142 86.370,349.608 85.600 C 349.075 84.830,348.314 83.909,347.919 83.553 C 347.524 83.197,347.200 82.794,347.200 82.658 C 347.200 82.337,346.141 81.044,344.500 79.360 C 343.785 78.627,343.200 77.938,343.200 77.829 C 343.200 77.635,341.746 76.012,337.858 71.869 C 333.507 67.233,331.476 65.198,328.372 62.369 C 326.581 60.736,324.510 58.815,323.771 58.100 C 323.032 57.385,322.325 56.800,322.200 56.800 C 322.075 56.800,321.373 56.215,320.640 55.500 C 318.980 53.882,317.664 52.800,317.356 52.800 C 317.227 52.800,316.617 52.260,316.000 51.600 C 315.383 50.940,314.726 50.400,314.540 50.400 C 314.353 50.399,313.660 49.934,313.000 49.365 C 312.340 48.796,311.305 48.037,310.700 47.679 C 310.095 47.321,309.600 46.908,309.600 46.762 C 309.600 46.616,309.060 46.273,308.400 46.000 C 307.740 45.727,307.200 45.384,307.200 45.239 C 307.200 45.094,306.030 44.260,304.601 43.387 C 303.171 42.514,302.001 41.665,302.001 41.500 C 302.000 41.335,301.722 41.200,301.383 41.200 C 301.044 41.200,300.380 40.840,299.908 40.400 C 299.436 39.960,298.813 39.600,298.525 39.600 C 298.236 39.600,298.000 39.420,298.000 39.200 C 298.000 38.980,297.722 38.800,297.383 38.800 C 297.044 38.800,296.380 38.440,295.908 38.000 C 295.436 37.560,294.813 37.200,294.525 37.200 C 294.236 37.200,294.000 37.020,294.000 36.800 C 294.000 36.580,293.640 36.400,293.200 36.400 C 292.760 36.400,292.400 36.220,292.400 36.000 C 292.400 35.780,292.040 35.600,291.600 35.600 C 291.160 35.600,290.800 35.448,290.800 35.263 C 290.800 35.077,289.945 34.492,288.900 33.963 C 287.855 33.433,286.940 32.865,286.867 32.700 C 286.793 32.535,286.388 32.400,285.967 32.400 C 285.545 32.400,285.200 32.220,285.200 32.000 C 285.200 31.780,285.026 31.600,284.813 31.600 C 284.600 31.600,282.952 30.880,281.151 30.000 C 279.350 29.120,277.635 28.400,277.339 28.400 C 277.042 28.400,276.800 28.220,276.800 28.000 C 276.800 27.780,276.575 27.601,276.300 27.601 C 275.811 27.602,271.280 25.873,269.905 25.160 C 269.523 24.962,268.848 24.800,268.405 24.800 C 267.962 24.800,267.600 24.620,267.600 24.400 C 267.600 24.180,267.161 24.000,266.624 24.000 C 266.087 24.000,265.536 23.820,265.400 23.600 C 265.264 23.380,264.803 23.200,264.376 23.200 C 263.949 23.200,263.600 23.020,263.600 22.800 C 263.600 22.580,263.060 22.400,262.400 22.400 C 261.740 22.400,261.200 22.220,261.200 22.000 C 261.200 21.780,260.660 21.600,260.000 21.600 C 259.340 21.600,258.800 21.420,258.800 21.200 C 258.800 20.980,258.260 20.800,257.600 20.800 C 256.940 20.800,256.400 20.620,256.400 20.400 C 256.400 20.180,255.871 20.000,255.224 20.000 C 254.577 20.000,253.936 19.820,253.800 19.600 C 253.664 19.380,253.034 19.200,252.400 19.200 C 251.766 19.200,251.136 19.020,251.000 18.800 C 250.864 18.580,250.133 18.400,249.376 18.400 C 248.619 18.400,248.000 18.220,248.000 18.000 C 248.000 17.780,247.381 17.600,246.624 17.600 C 245.867 17.600,245.136 17.420,245.000 17.200 C 244.864 16.980,244.043 16.800,243.176 16.800 C 242.309 16.800,241.600 16.620,241.600 16.400 C 241.600 16.180,240.801 16.000,239.824 16.000 C 238.847 16.000,237.936 15.820,237.800 15.600 C 237.664 15.380,236.764 15.200,235.800 15.200 C 234.836 15.200,233.936 15.020,233.800 14.800 C 233.664 14.580,232.573 14.400,231.376 14.400 C 230.179 14.400,229.200 14.220,229.200 14.000 C 229.200 13.773,228.027 13.600,226.480 13.600 C 224.984 13.600,223.589 13.433,223.380 13.228 C 222.505 12.372,185.239 11.584,184.000 12.395 M196.000 108.400 C 195.196 108.657,195.157 108.723,195.800 108.732 C 196.240 108.738,196.960 108.589,197.400 108.400 C 198.419 107.962,197.368 107.962,196.000 108.400 M202.600 108.400 C 203.040 108.589,203.760 108.738,204.200 108.732 C 204.843 108.723,204.804 108.657,204.000 108.400 C 202.632 107.962,201.581 107.962,202.600 108.400 M251.709 130.800 C 251.709 131.790,251.787 132.195,251.882 131.700 C 251.978 131.205,251.978 130.395,251.882 129.900 C 251.787 129.405,251.709 129.810,251.709 130.800 M182.731 161.100 C 197.763 161.158,222.243 161.158,237.131 161.100 C 252.019 161.042,239.720 160.994,209.800 160.994 C 179.880 160.994,167.699 161.042,182.731 161.100 M276.000 167.000 C 276.746 167.770,277.447 168.400,277.557 168.400 C 277.667 168.400,277.146 167.770,276.400 167.000 C 275.654 166.230,274.953 165.600,274.843 165.600 C 274.733 165.600,275.254 166.230,276.000 167.000 M282.194 231.200 C 282.194 260.350,282.242 272.275,282.300 257.700 C 282.358 243.125,282.358 219.275,282.300 204.700 C 282.242 190.125,282.194 202.050,282.194 231.200 M182.937 215.400 C 182.939 217.160,183.009 217.830,183.093 216.889 C 183.178 215.949,183.177 214.509,183.091 213.689 C 183.005 212.870,182.936 213.640,182.937 215.400 M216.937 215.400 C 216.939 217.160,217.009 217.830,217.093 216.889 C 217.178 215.949,217.177 214.509,217.091 213.689 C 217.005 212.870,216.936 213.640,216.937 215.400 M186.800 226.525 C 186.800 226.594,187.385 227.179,188.100 227.825 L 189.400 229.000 188.225 227.700 C 187.130 226.488,186.800 226.216,186.800 226.525 M211.775 227.700 L 210.600 229.000 211.900 227.825 C 212.615 227.179,213.200 226.594,213.200 226.525 C 213.200 226.216,212.870 226.488,211.775 227.700 M190.446 230.067 C 190.421 230.434,190.296 231.064,190.170 231.467 C 189.952 232.162,189.963 232.163,190.397 231.487 C 190.648 231.096,190.773 230.466,190.673 230.087 C 190.511 229.468,190.488 229.466,190.446 230.067 M209.206 230.233 C 209.209 230.655,209.395 231.270,209.618 231.600 C 209.915 232.038,209.952 231.876,209.756 231.000 C 209.427 229.529,209.198 229.210,209.206 230.233 M134.500 301.076 C 134.885 301.176,135.515 301.176,135.900 301.076 C 136.285 300.975,135.970 300.893,135.200 300.893 C 134.430 300.893,134.115 300.975,134.500 301.076 M264.100 301.076 C 264.485 301.176,265.115 301.176,265.500 301.076 C 265.885 300.975,265.570 300.893,264.800 300.893 C 264.030 300.893,263.715 300.975,264.100 301.076 M335.000 331.119 C 334.560 331.499,333.938 332.168,333.617 332.605 C 333.297 333.042,333.702 332.780,334.517 332.022 C 335.850 330.782,336.202 330.373,335.900 330.413 C 335.845 330.421,335.440 330.738,335.000 331.119 "
            stroke="none" fill="#fb5b54" fill-rule="evenodd"></path>
        <path id="path2"
            d="M243.200 106.302 C 243.200 106.576,243.359 106.800,243.553 106.800 C 243.748 106.800,244.013 107.115,244.142 107.500 C 244.375 108.191,245.293 109.840,246.460 111.664 C 250.263 117.610,253.305 133.116,251.393 136.813 C 250.255 139.014,249.337 139.200,239.594 139.200 C 228.123 139.200,227.742 139.018,227.008 133.200 C 226.508 129.236,226.303 128.184,225.959 127.820 C 225.762 127.611,225.600 127.037,225.600 126.544 C 225.600 126.051,225.420 125.536,225.200 125.400 C 224.980 125.264,224.800 124.803,224.800 124.376 C 224.800 123.949,224.641 123.600,224.447 123.600 C 224.252 123.600,223.993 123.285,223.871 122.900 C 222.731 119.305,216.192 112.983,211.400 110.843 C 210.740 110.548,209.887 110.148,209.505 109.953 C 209.123 109.759,208.459 109.600,208.029 109.600 C 207.599 109.600,207.150 109.443,207.031 109.250 C 206.765 108.819,202.961 108.311,200.000 108.311 C 197.039 108.311,193.235 108.819,192.969 109.250 C 192.850 109.443,192.401 109.600,191.971 109.600 C 191.541 109.600,190.877 109.759,190.495 109.953 C 190.113 110.148,189.260 110.548,188.600 110.843 C 183.808 112.983,177.269 119.305,176.129 122.900 C 176.007 123.285,175.748 123.600,175.553 123.600 C 175.359 123.600,175.200 123.949,175.200 124.376 C 175.200 124.803,175.020 125.264,174.800 125.400 C 174.580 125.536,174.400 126.076,174.400 126.600 C 174.400 127.124,174.239 127.652,174.042 127.774 C 173.383 128.182,173.122 131.338,172.940 141.100 L 172.760 150.800 161.280 150.806 C 154.966 150.809,149.576 150.954,149.302 151.128 C 148.946 151.355,149.719 152.741,152.033 156.022 L 155.261 160.600 209.931 160.831 C 261.163 161.047,266.126 161.145,268.200 161.975 C 275.448 164.874,279.936 169.776,281.819 176.852 C 282.657 180.001,282.684 282.072,281.848 285.280 C 279.886 292.807,275.050 298.054,267.919 300.395 C 264.104 301.648,135.904 301.661,132.162 300.410 C 130.863 299.975,129.531 299.615,129.202 299.610 C 128.874 299.604,148.249 319.265,172.258 343.300 C 196.267 367.335,215.985 387.251,216.075 387.557 C 216.201 387.989,216.422 388.017,217.050 387.680 C 217.497 387.441,219.288 387.210,221.031 387.167 C 222.774 387.123,224.302 386.931,224.426 386.740 C 224.550 386.549,225.854 386.375,227.322 386.353 C 228.791 386.331,229.894 386.152,229.773 385.956 C 229.559 385.610,231.106 385.445,233.260 385.584 C 233.844 385.621,234.439 385.460,234.584 385.226 C 234.729 384.992,235.478 384.800,236.250 384.800 C 237.021 384.800,237.956 384.639,238.326 384.443 C 238.985 384.094,240.680 383.741,243.700 383.323 C 244.525 383.209,245.200 382.955,245.200 382.758 C 245.200 382.561,246.010 382.400,247.000 382.400 C 247.990 382.400,248.800 382.240,248.800 382.045 C 248.800 381.692,250.058 381.351,252.898 380.936 C 253.722 380.815,254.296 380.555,254.174 380.358 C 254.052 380.161,254.593 380.000,255.376 380.000 C 256.159 380.000,256.800 379.820,256.800 379.600 C 256.800 379.380,257.250 379.200,257.800 379.200 C 258.350 379.200,258.800 379.020,258.800 378.800 C 258.800 378.580,259.340 378.400,260.000 378.400 C 260.660 378.400,261.200 378.220,261.200 378.000 C 261.200 377.780,261.661 377.600,262.224 377.600 C 262.787 377.600,263.148 377.440,263.027 377.243 C 262.906 377.047,263.390 376.786,264.103 376.662 C 267.114 376.141,268.000 375.889,268.000 375.555 C 268.000 375.360,268.349 375.200,268.776 375.200 C 269.203 375.200,269.659 375.028,269.789 374.817 C 269.919 374.607,270.290 374.536,270.613 374.660 C 270.936 374.784,271.200 374.676,271.200 374.419 C 271.200 374.163,271.368 374.056,271.572 374.183 C 271.777 374.309,272.060 374.227,272.200 374.000 C 272.340 373.773,272.625 373.692,272.832 373.819 C 273.038 373.947,273.680 373.680,274.258 373.226 C 274.835 372.772,275.633 372.400,276.030 372.400 C 276.428 372.400,276.864 372.220,277.000 372.000 C 277.136 371.780,277.732 371.597,278.324 371.594 C 279.166 371.589,279.269 371.503,278.800 371.200 C 278.315 370.886,278.372 370.811,279.100 370.806 C 279.595 370.803,280.000 370.620,280.000 370.400 C 280.000 370.180,280.570 370.000,281.267 370.000 C 281.963 370.000,282.416 369.883,282.273 369.739 C 281.932 369.399,283.868 368.400,284.869 368.400 C 285.297 368.400,285.536 368.220,285.400 368.000 C 285.181 367.645,286.022 367.405,286.930 367.563 C 287.111 367.594,287.155 367.451,287.027 367.244 C 286.900 367.038,287.336 366.630,287.998 366.337 C 288.659 366.044,289.200 365.669,289.200 365.502 C 289.200 365.336,289.616 365.200,290.125 365.200 C 290.633 365.200,291.436 364.840,291.908 364.400 C 292.380 363.960,293.044 363.600,293.383 363.600 C 293.722 363.600,294.000 363.420,294.000 363.200 C 294.000 362.980,294.278 362.800,294.617 362.800 C 294.956 362.800,295.620 362.440,296.092 362.000 C 296.564 361.560,297.187 361.200,297.475 361.200 C 297.764 361.200,298.000 361.020,298.000 360.800 C 298.000 360.580,298.270 360.400,298.600 360.400 C 298.930 360.400,299.200 360.220,299.200 360.000 C 299.200 359.780,299.388 359.600,299.617 359.600 C 299.846 359.600,300.398 359.260,300.844 358.844 C 301.290 358.429,302.195 357.981,302.854 357.849 C 303.518 357.716,303.941 357.429,303.803 357.205 C 303.587 356.855,304.046 356.645,304.835 356.731 C 304.964 356.745,305.650 356.226,306.359 355.578 C 307.069 354.930,307.919 354.400,308.248 354.400 C 308.578 354.400,308.736 354.220,308.600 354.000 C 308.464 353.780,308.633 353.600,308.976 353.600 C 309.319 353.600,309.600 353.420,309.600 353.200 C 309.600 352.980,309.971 352.800,310.424 352.800 C 310.877 352.800,311.136 352.620,311.000 352.400 C 310.864 352.180,310.954 352.000,311.200 352.000 C 311.446 352.000,311.519 351.792,311.362 351.538 C 311.198 351.273,311.251 351.184,311.487 351.330 C 311.712 351.469,312.303 351.231,312.800 350.800 C 313.297 350.369,313.860 350.113,314.052 350.232 C 314.243 350.350,314.400 350.077,314.400 349.624 C 314.400 349.127,314.660 348.800,315.057 348.800 C 315.418 348.800,316.230 348.259,316.862 347.598 C 317.493 346.937,318.223 346.352,318.483 346.298 C 318.743 346.244,319.541 345.660,320.256 345.000 C 322.348 343.070,322.697 342.833,323.022 343.124 C 323.190 343.276,323.216 343.202,323.078 342.960 C 322.803 342.478,324.587 340.720,324.966 341.099 C 325.095 341.228,325.200 341.104,325.200 340.824 C 325.200 340.271,326.569 339.080,328.717 337.766 C 329.466 337.307,330.107 336.767,330.140 336.566 C 330.173 336.365,330.335 336.245,330.500 336.300 C 330.665 336.355,330.755 336.182,330.700 335.915 C 330.645 335.648,331.005 335.245,331.500 335.020 C 331.995 334.795,332.400 334.372,332.400 334.082 C 332.400 333.791,332.580 333.664,332.800 333.800 C 333.020 333.936,333.200 333.756,333.200 333.400 C 333.200 333.013,333.385 332.867,333.662 333.038 C 333.936 333.207,334.015 333.149,333.858 332.894 C 333.531 332.365,334.720 331.104,335.242 331.426 C 335.450 331.554,335.570 331.421,335.510 331.130 C 335.449 330.836,335.668 330.660,336.000 330.733 C 336.330 330.807,336.492 330.758,336.360 330.626 C 336.227 330.494,336.731 329.737,337.478 328.945 C 338.226 328.152,338.758 327.424,338.661 327.328 C 338.416 327.082,340.345 325.200,340.842 325.200 C 341.065 325.200,341.144 325.033,341.018 324.829 C 340.892 324.625,341.154 324.342,341.600 324.200 C 342.046 324.058,342.308 323.775,342.182 323.571 C 342.056 323.367,342.222 323.200,342.551 323.200 C 342.879 323.200,343.374 322.575,343.651 321.810 C 343.927 321.046,344.236 320.502,344.336 320.603 C 344.555 320.821,346.399 318.741,346.400 318.276 C 346.400 318.098,346.564 318.054,346.765 318.179 C 346.966 318.303,347.370 317.864,347.663 317.202 C 347.956 316.541,348.331 316.000,348.498 316.000 C 348.664 316.000,348.800 315.640,348.800 315.200 C 348.800 314.760,348.935 314.421,349.100 314.447 C 350.019 314.592,350.462 314.337,350.250 313.785 C 350.115 313.435,350.269 313.072,350.607 312.942 C 350.933 312.817,351.200 312.434,351.200 312.091 C 351.200 311.747,351.311 311.578,351.448 311.714 C 351.765 312.032,352.800 311.008,352.800 310.375 C 352.800 310.111,353.188 309.558,353.661 309.147 C 354.135 308.736,354.301 308.400,354.030 308.400 C 353.760 308.400,354.047 307.866,354.669 307.213 C 356.449 305.344,356.768 304.902,356.519 304.652 C 356.390 304.524,356.580 304.306,356.940 304.168 C 357.301 304.029,357.509 303.776,357.403 303.605 C 357.297 303.434,357.568 302.839,358.005 302.284 C 358.442 301.728,358.800 300.977,358.800 300.613 C 358.800 300.250,358.980 300.064,359.200 300.200 C 359.420 300.336,359.600 300.167,359.600 299.824 C 359.600 299.481,359.746 299.200,359.925 299.200 C 360.104 299.200,360.499 298.566,360.803 297.791 C 361.107 297.017,361.681 296.089,362.078 295.729 C 362.475 295.370,362.800 294.733,362.800 294.314 C 362.800 293.896,362.980 293.664,363.200 293.800 C 363.420 293.936,363.600 293.759,363.600 293.407 C 363.600 293.055,363.960 292.380,364.400 291.908 C 364.840 291.436,365.200 290.813,365.200 290.525 C 365.200 290.236,365.380 290.000,365.600 290.000 C 365.820 290.000,365.979 289.865,365.953 289.700 C 365.827 288.903,366.040 288.378,366.400 288.600 C 366.628 288.741,366.800 288.396,366.800 287.800 C 366.800 287.204,366.972 286.859,367.200 287.000 C 367.428 287.141,367.600 286.796,367.600 286.200 C 367.600 285.604,367.772 285.259,368.000 285.400 C 368.220 285.536,368.400 285.277,368.400 284.824 C 368.400 284.371,368.580 284.000,368.800 284.000 C 369.020 284.000,369.200 283.640,369.200 283.200 C 369.200 282.760,369.380 282.400,369.600 282.400 C 369.820 282.400,370.000 282.040,370.000 281.600 C 370.000 281.160,370.141 280.800,370.313 280.800 C 370.485 280.800,370.665 280.319,370.714 279.730 C 370.763 279.142,371.090 278.343,371.440 277.955 C 371.791 277.568,371.960 277.059,371.816 276.825 C 371.671 276.591,371.773 276.400,372.043 276.400 C 372.313 276.400,372.414 276.281,372.269 276.135 C 372.123 275.990,372.456 275.278,373.008 274.554 C 373.560 273.830,373.971 273.094,373.921 272.919 C 373.871 272.743,374.057 272.191,374.334 271.692 C 374.610 271.192,374.736 270.620,374.612 270.419 C 374.488 270.219,374.570 269.942,374.793 269.804 C 375.017 269.666,375.200 269.203,375.200 268.776 C 375.200 268.349,375.380 268.000,375.600 268.000 C 375.820 268.000,376.000 267.359,376.000 266.576 C 376.000 265.729,376.162 265.253,376.400 265.400 C 376.626 265.540,376.800 265.212,376.800 264.647 C 376.800 264.097,376.980 263.536,377.200 263.400 C 377.420 263.264,377.600 262.613,377.600 261.953 C 377.600 261.255,377.767 260.856,378.000 261.000 C 378.233 261.144,378.400 260.737,378.400 260.024 C 378.400 259.351,378.580 258.800,378.800 258.800 C 379.020 258.800,379.200 258.350,379.200 257.800 C 379.200 257.250,379.380 256.800,379.600 256.800 C 379.820 256.800,380.000 256.159,380.000 255.376 C 380.000 254.593,380.161 254.052,380.358 254.174 C 380.555 254.296,380.815 253.722,380.936 252.898 C 381.351 250.058,381.692 248.800,382.045 248.800 C 382.240 248.800,382.400 248.080,382.400 247.200 C 382.400 246.320,382.550 245.600,382.733 245.600 C 382.917 245.600,383.067 245.338,383.067 245.018 C 383.067 244.697,382.896 244.541,382.688 244.669 C 382.479 244.798,351.009 213.606,312.754 175.353 C 274.500 137.101,243.200 106.027,243.200 106.302 M196.551 198.746 C 183.447 201.087,178.674 218.219,188.469 227.758 L 190.890 230.116 190.412 231.758 C 189.822 233.784,189.313 235.822,189.001 237.400 C 188.871 238.060,188.582 239.320,188.360 240.200 C 188.138 241.080,187.796 242.520,187.600 243.400 C 187.404 244.280,187.075 245.720,186.870 246.600 C 186.664 247.480,186.105 249.910,185.627 252.000 C 185.150 254.090,184.392 257.298,183.943 259.128 C 182.655 264.378,181.411 264.000,200.000 264.000 C 218.589 264.000,217.345 264.378,216.057 259.128 C 215.608 257.298,214.850 254.090,214.373 252.000 C 213.895 249.910,213.336 247.480,213.130 246.600 C 212.925 245.720,212.596 244.280,212.400 243.400 C 212.204 242.520,211.862 241.080,211.640 240.200 C 211.418 239.320,211.129 238.060,210.999 237.400 C 210.687 235.822,210.178 233.784,209.588 231.758 L 209.110 230.116 211.531 227.758 C 223.753 215.856,213.366 195.742,196.551 198.746 "
            stroke="none" fill="#dc3c3c" fill-rule="evenodd"></path>
        <path id="path3"
            d="M198.100 83.494 C 199.145 83.576,200.855 83.576,201.900 83.494 C 202.945 83.412,202.090 83.344,200.000 83.344 C 197.910 83.344,197.055 83.412,198.100 83.494 M191.200 84.000 C 189.850 84.284,189.843 84.295,191.000 84.300 C 191.660 84.303,192.740 84.168,193.400 84.000 C 195.060 83.578,193.207 83.578,191.200 84.000 M206.600 84.000 C 207.260 84.168,208.340 84.306,209.000 84.307 C 210.009 84.308,209.945 84.255,208.600 83.977 C 206.574 83.558,204.937 83.577,206.600 84.000 M210.400 84.510 C 210.682 84.797,215.689 86.044,215.862 85.871 C 216.024 85.709,213.697 85.008,211.600 84.587 C 210.830 84.433,210.290 84.398,210.400 84.510 M183.861 85.795 C 182.355 86.317,181.005 86.875,180.861 87.036 C 180.718 87.196,180.960 87.197,181.400 87.037 C 181.840 86.878,183.370 86.384,184.800 85.940 C 186.230 85.496,187.580 85.072,187.800 84.998 C 188.020 84.924,187.840 84.860,187.400 84.855 C 186.960 84.851,185.368 85.274,183.861 85.795 M216.800 86.333 C 217.130 86.536,217.850 86.824,218.400 86.971 C 219.095 87.157,219.217 87.125,218.800 86.867 C 218.470 86.664,217.750 86.376,217.200 86.229 C 216.505 86.043,216.383 86.075,216.800 86.333 M178.500 87.834 C 177.785 88.146,177.200 88.494,177.200 88.607 C 177.200 88.815,180.006 87.727,180.346 87.387 C 180.686 87.047,179.820 87.257,178.500 87.834 M219.633 87.339 C 220.220 87.829,225.624 90.363,225.437 90.061 C 225.200 89.677,220.283 87.200,219.759 87.200 C 219.598 87.200,219.542 87.263,219.633 87.339 M175.200 89.636 C 174.536 90.179,174.469 90.315,175.000 90.040 C 176.305 89.366,177.028 88.812,176.600 88.815 C 176.380 88.817,175.750 89.186,175.200 89.636 M172.400 91.236 C 171.736 91.779,171.669 91.915,172.200 91.640 C 173.505 90.966,174.228 90.412,173.800 90.415 C 173.580 90.417,172.950 90.786,172.400 91.236 M227.233 91.316 C 227.325 91.380,228.075 91.929,228.900 92.537 C 229.725 93.144,230.398 93.497,230.395 93.320 C 230.390 92.987,227.815 91.200,227.339 91.200 C 227.189 91.200,227.142 91.252,227.233 91.316 M169.585 93.229 L 168.200 94.458 169.700 93.381 C 171.026 92.430,171.457 92.000,171.085 92.000 C 171.022 92.000,170.347 92.553,169.585 93.229 M232.888 95.413 C 233.486 96.043,234.047 96.477,234.135 96.379 C 234.223 96.280,233.733 95.765,233.047 95.234 L 231.800 94.269 232.888 95.413 M163.188 98.700 L 160.600 101.400 163.300 98.812 C 165.808 96.407,166.183 96.000,165.888 96.000 C 165.827 96.000,164.612 97.215,163.188 98.700 M236.997 99.200 C 238.284 100.630,239.701 102.160,240.145 102.600 L 240.953 103.400 240.383 102.600 C 240.070 102.160,238.653 100.630,237.235 99.200 L 234.656 96.600 236.997 99.200 M157.696 105.005 C 156.532 106.803,156.800 106.800,158.173 105.000 C 158.760 104.230,159.097 103.602,158.920 103.605 C 158.744 103.608,158.193 104.238,157.696 105.005 M242.463 106.000 C 242.951 106.660,243.417 107.200,243.498 107.200 C 243.579 107.200,243.326 106.660,242.936 106.000 C 242.546 105.340,242.081 104.800,241.902 104.800 C 241.723 104.800,241.975 105.340,242.463 106.000 M155.014 109.035 C 154.641 109.604,154.405 110.138,154.489 110.222 C 154.573 110.307,154.958 109.841,155.344 109.188 C 156.206 107.728,155.948 107.609,155.014 109.035 M184.144 112.931 C 181.564 114.836,177.805 118.766,176.677 120.737 C 175.555 122.699,176.173 122.224,177.565 120.054 C 178.993 117.830,182.603 114.266,185.100 112.617 C 186.644 111.597,187.076 111.200,186.644 111.200 C 186.558 111.200,185.433 111.979,184.144 112.931 M213.200 111.324 C 213.200 111.417,213.965 111.998,214.900 112.615 C 215.835 113.231,217.696 114.740,219.036 115.968 C 220.621 117.421,220.467 117.223,218.593 115.400 C 216.112 112.987,213.200 110.786,213.200 111.324 M151.853 115.335 C 151.125 117.078,150.644 118.653,150.917 118.400 C 151.249 118.093,152.814 114.000,152.600 114.000 C 152.496 114.000,152.160 114.601,151.853 115.335 M222.585 120.300 C 223.202 121.235,223.783 122.000,223.876 122.000 C 224.164 122.000,222.633 119.566,222.032 119.069 C 221.720 118.811,221.968 119.365,222.585 120.300 M149.429 122.629 C 149.281 123.215,149.238 123.772,149.332 123.866 C 149.427 123.960,149.624 123.558,149.771 122.971 C 149.919 122.385,149.962 121.828,149.868 121.734 C 149.773 121.640,149.576 122.042,149.429 122.629 M250.056 122.400 C 250.056 122.730,250.211 123.360,250.400 123.800 C 250.617 124.304,250.744 124.378,250.744 124.000 C 250.744 123.670,250.589 123.040,250.400 122.600 C 250.183 122.096,250.056 122.022,250.056 122.400 M148.640 126.440 C 148.493 127.357,148.452 128.185,148.547 128.280 C 148.642 128.376,148.846 127.710,149.000 126.800 C 149.154 125.890,149.196 125.062,149.093 124.960 C 148.990 124.857,148.787 125.523,148.640 126.440 M250.887 126.200 C 250.891 126.640,251.032 127.540,251.200 128.200 C 251.474 129.278,251.506 129.298,251.513 128.400 C 251.517 127.850,251.376 126.950,251.200 126.400 C 250.949 125.616,250.881 125.573,250.887 126.200 M173.050 129.650 C 172.717 131.317,173.040 131.640,173.400 130.000 C 173.552 129.309,173.593 128.659,173.491 128.558 C 173.389 128.456,173.191 128.947,173.050 129.650 M226.468 129.000 C 226.462 129.440,226.611 130.160,226.800 130.600 C 227.238 131.619,227.238 130.568,226.800 129.200 C 226.543 128.396,226.477 128.357,226.468 129.000 M148.189 140.700 L 148.200 150.600 160.400 150.600 L 172.600 150.600 172.612 141.600 L 172.624 132.600 172.504 141.500 L 172.385 150.400 160.399 150.400 L 148.414 150.400 148.296 140.600 L 148.179 130.800 148.189 140.700 M251.701 133.800 C 251.705 134.680,251.787 134.993,251.883 134.495 C 251.979 133.998,251.975 133.278,251.875 132.895 C 251.775 132.513,251.696 132.920,251.701 133.800 M227.246 134.241 C 227.196 135.585,228.624 138.042,229.600 138.292 C 230.012 138.398,229.982 138.308,229.505 138.006 C 228.609 137.439,227.924 136.160,227.572 134.400 L 227.292 133.000 227.246 134.241 M250.419 137.305 L 249.495 138.600 250.626 137.512 C 251.249 136.914,251.664 136.331,251.550 136.217 C 251.436 136.103,250.927 136.593,250.419 137.305 M230.662 138.900 C 230.901 139.288,248.052 139.282,248.662 138.894 C 248.917 138.732,244.929 138.600,239.801 138.600 C 234.673 138.600,230.560 138.735,230.662 138.900 M136.013 161.197 C 135.523 161.313,164.255 161.433,199.861 161.464 C 235.467 161.495,264.150 161.456,263.600 161.376 C 261.986 161.141,136.993 160.966,136.013 161.197 M127.900 163.829 C 126.405 164.640,126.496 164.978,128.000 164.200 C 128.660 163.859,129.200 163.494,129.200 163.390 C 129.200 163.132,129.157 163.147,127.900 163.829 M125.054 165.855 C 124.423 166.397,123.973 166.906,124.054 166.986 C 124.134 167.066,124.716 166.688,125.346 166.145 C 125.977 165.603,126.427 165.094,126.346 165.014 C 126.266 164.934,125.684 165.312,125.054 165.855 M274.281 165.818 C 274.985 166.374,276.313 167.677,277.230 168.714 C 278.148 169.751,278.528 170.049,278.076 169.375 C 277.172 168.030,273.801 164.797,273.309 164.804 C 273.139 164.807,273.576 165.263,274.281 165.818 M121.790 169.436 C 120.915 170.640,120.137 171.845,120.060 172.113 C 119.983 172.381,120.414 171.880,121.017 171.000 C 121.620 170.120,122.479 168.996,122.925 168.502 C 123.371 168.007,123.656 167.523,123.558 167.424 C 123.459 167.326,122.664 168.231,121.790 169.436 M279.400 172.000 C 279.741 172.660,280.111 173.200,280.221 173.200 C 280.331 173.200,280.141 172.660,279.800 172.000 C 279.459 171.340,279.089 170.800,278.979 170.800 C 278.869 170.800,279.059 171.340,279.400 172.000 M119.179 173.855 C 118.958 174.436,118.852 174.985,118.943 175.076 C 119.033 175.167,119.299 174.692,119.533 174.020 C 120.053 172.528,119.739 172.382,119.179 173.855 M118.222 177.022 C 118.072 177.825,118.028 178.562,118.126 178.660 C 118.224 178.757,118.427 178.181,118.578 177.378 C 118.728 176.575,118.772 175.838,118.674 175.740 C 118.576 175.643,118.373 176.219,118.222 177.022 M281.280 176.600 C 281.280 177.040,281.424 177.850,281.600 178.400 C 281.854 179.192,281.920 179.233,281.920 178.600 C 281.920 178.160,281.776 177.350,281.600 176.800 C 281.346 176.008,281.280 175.967,281.280 176.600 M117.794 231.200 C 117.794 259.690,117.842 271.345,117.900 257.100 C 117.958 242.855,117.958 219.545,117.900 205.300 C 117.842 191.055,117.794 202.710,117.794 231.200 M198.500 198.291 C 199.325 198.378,200.675 198.378,201.500 198.291 C 202.325 198.205,201.650 198.134,200.000 198.134 C 198.350 198.134,197.675 198.205,198.500 198.291 M187.209 203.483 C 185.711 205.182,184.134 207.600,184.522 207.600 C 184.601 207.600,185.245 206.706,185.953 205.613 C 186.661 204.521,187.708 203.258,188.281 202.808 C 188.854 202.357,189.227 201.893,189.110 201.777 C 188.994 201.661,188.138 202.428,187.209 203.483 M210.822 201.900 C 210.834 202.065,211.419 202.638,212.122 203.174 L 213.400 204.149 212.225 202.874 C 211.003 201.549,210.785 201.397,210.822 201.900 M214.174 205.800 C 215.567 207.852,215.852 208.095,215.077 206.571 C 214.734 205.895,214.149 205.090,213.778 204.782 C 213.407 204.474,213.585 204.932,214.174 205.800 M183.029 211.029 C 182.881 211.615,182.838 212.172,182.932 212.266 C 183.027 212.360,183.224 211.958,183.371 211.371 C 183.519 210.785,183.562 210.228,183.468 210.134 C 183.373 210.040,183.176 210.442,183.029 211.029 M216.456 210.400 C 216.456 210.730,216.611 211.360,216.800 211.800 C 217.017 212.304,217.144 212.378,217.144 212.000 C 217.144 211.670,216.989 211.040,216.800 210.600 C 216.583 210.096,216.456 210.022,216.456 210.400 M182.856 218.800 C 182.856 219.130,183.011 219.760,183.200 220.200 C 183.417 220.704,183.544 220.778,183.544 220.400 C 183.544 220.070,183.389 219.440,183.200 219.000 C 182.983 218.496,182.856 218.422,182.856 218.800 M216.629 219.429 C 216.481 220.015,216.438 220.572,216.532 220.666 C 216.627 220.760,216.824 220.358,216.971 219.771 C 217.119 219.185,217.162 218.628,217.068 218.534 C 216.973 218.440,216.776 218.842,216.629 219.429 M189.457 229.200 C 189.708 229.530,190.002 230.160,190.111 230.600 C 190.297 231.360,190.310 231.357,190.354 230.549 C 190.379 230.081,190.085 229.451,189.700 229.149 C 189.091 228.672,189.060 228.678,189.457 229.200 M210.080 229.280 C 209.816 229.544,209.621 230.129,209.646 230.580 C 209.692 231.383,209.697 231.384,209.889 230.600 C 209.998 230.160,210.269 229.575,210.492 229.300 C 211.010 228.662,210.712 228.648,210.080 229.280 M189.450 233.250 C 189.117 234.917,189.440 235.240,189.800 233.600 C 189.952 232.909,189.993 232.259,189.891 232.158 C 189.789 232.056,189.591 232.547,189.450 233.250 M210.068 232.600 C 210.062 233.040,210.211 233.760,210.400 234.200 C 210.838 235.219,210.838 234.168,210.400 232.800 C 210.143 231.996,210.077 231.957,210.068 232.600 M188.846 236.067 C 188.821 236.434,188.696 237.064,188.570 237.467 C 188.352 238.162,188.363 238.163,188.797 237.487 C 189.048 237.096,189.173 236.466,189.073 236.087 C 188.911 235.468,188.888 235.466,188.846 236.067 M210.806 236.233 C 210.809 236.655,210.995 237.270,211.218 237.600 C 211.515 238.038,211.552 237.876,211.356 237.000 C 211.027 235.529,210.798 235.210,210.806 236.233 M187.829 240.229 C 187.681 240.815,187.638 241.372,187.732 241.466 C 187.827 241.560,188.024 241.158,188.171 240.571 C 188.319 239.985,188.362 239.428,188.268 239.334 C 188.173 239.240,187.976 239.642,187.829 240.229 M211.656 239.600 C 211.656 239.930,211.811 240.560,212.000 241.000 C 212.217 241.504,212.344 241.578,212.344 241.200 C 212.344 240.870,212.189 240.240,212.000 239.800 C 211.783 239.296,211.656 239.222,211.656 239.600 M187.246 242.867 C 187.221 243.234,187.096 243.864,186.970 244.267 C 186.752 244.962,186.763 244.963,187.197 244.287 C 187.448 243.896,187.573 243.266,187.473 242.887 C 187.311 242.268,187.288 242.266,187.246 242.867 M212.406 243.033 C 212.409 243.455,212.595 244.070,212.818 244.400 C 213.115 244.838,213.152 244.676,212.956 243.800 C 212.627 242.329,212.398 242.010,212.406 243.033 M186.229 247.029 C 186.081 247.615,186.038 248.172,186.132 248.266 C 186.227 248.360,186.424 247.958,186.571 247.371 C 186.719 246.785,186.762 246.228,186.668 246.134 C 186.573 246.040,186.376 246.442,186.229 247.029 M213.256 246.400 C 213.256 246.730,213.411 247.360,213.600 247.800 C 213.817 248.304,213.944 248.378,213.944 248.000 C 213.944 247.670,213.789 247.040,213.600 246.600 C 213.383 246.096,213.256 246.022,213.256 246.400 M185.429 250.229 C 185.281 250.815,185.251 251.384,185.361 251.494 C 185.471 251.604,185.681 251.215,185.829 250.629 C 185.976 250.042,186.006 249.473,185.896 249.363 C 185.786 249.253,185.576 249.642,185.429 250.229 M214.034 249.800 C 214.022 250.240,214.187 250.870,214.400 251.200 C 214.914 251.995,214.914 250.996,214.400 249.800 L 214.056 249.000 214.034 249.800 M184.629 253.829 C 184.481 254.415,184.438 254.972,184.532 255.066 C 184.627 255.160,184.824 254.758,184.971 254.171 C 185.119 253.585,185.162 253.028,185.068 252.934 C 184.973 252.840,184.776 253.242,184.629 253.829 M214.856 253.200 C 214.856 253.530,215.011 254.160,215.200 254.600 C 215.417 255.104,215.544 255.178,215.544 254.800 C 215.544 254.470,215.389 253.840,215.200 253.400 C 214.983 252.896,214.856 252.822,214.856 253.200 M183.829 257.029 C 183.681 257.615,183.638 258.172,183.732 258.266 C 183.827 258.360,184.024 257.958,184.171 257.371 C 184.319 256.785,184.362 256.228,184.268 256.134 C 184.173 256.040,183.976 256.442,183.829 257.029 M215.656 256.400 C 215.656 256.730,215.811 257.360,216.000 257.800 C 216.217 258.304,216.344 258.378,216.344 258.000 C 216.344 257.670,216.189 257.040,216.000 256.600 C 215.783 256.096,215.656 256.022,215.656 256.400 M183.052 260.500 C 182.633 262.065,182.778 263.085,183.500 263.651 C 184.135 264.149,184.149 264.135,183.649 263.498 C 183.275 263.020,183.180 262.285,183.354 261.198 C 183.630 259.471,183.444 259.039,183.052 260.500 M216.668 261.098 C 216.826 262.242,216.722 263.025,216.351 263.498 C 215.851 264.135,215.865 264.149,216.500 263.651 C 217.244 263.067,217.374 261.520,216.790 260.200 C 216.549 259.657,216.510 259.946,216.668 261.098 M192.100 264.300 C 196.445 264.364,203.555 264.364,207.900 264.300 C 212.245 264.235,208.690 264.182,200.000 264.182 C 191.310 264.182,187.755 264.235,192.100 264.300 M281.422 284.622 C 281.272 285.425,281.228 286.162,281.326 286.260 C 281.424 286.357,281.627 285.781,281.778 284.978 C 281.928 284.175,281.972 283.438,281.874 283.340 C 281.776 283.243,281.573 283.819,281.422 284.622 M118.080 284.200 C 118.080 284.640,118.224 285.450,118.400 286.000 C 118.654 286.792,118.720 286.833,118.720 286.200 C 118.720 285.760,118.576 284.950,118.400 284.400 C 118.146 283.608,118.080 283.567,118.080 284.200 M280.110 288.809 C 279.647 289.904,279.353 290.800,279.457 290.800 C 279.727 290.800,281.298 287.165,281.109 286.976 C 281.022 286.889,280.573 287.714,280.110 288.809 M120.760 291.400 C 121.434 292.705,121.988 293.428,121.985 293.000 C 121.983 292.780,121.614 292.150,121.164 291.600 C 120.621 290.936,120.485 290.869,120.760 291.400 M276.597 294.300 C 275.521 295.565,275.056 296.240,275.564 295.800 C 276.529 294.964,278.983 292.000,278.710 292.000 C 278.623 292.000,277.672 293.035,276.597 294.300 M123.897 295.226 C 124.830 296.215,126.180 297.341,126.897 297.729 C 128.156 298.411,128.166 298.410,127.200 297.719 C 126.650 297.325,125.300 296.198,124.200 295.216 L 122.200 293.429 123.897 295.226 M132.600 300.400 C 133.040 300.589,133.670 300.744,134.000 300.744 C 134.378 300.744,134.304 300.617,133.800 300.400 C 133.360 300.211,132.730 300.056,132.400 300.056 C 132.022 300.056,132.096 300.183,132.600 300.400 M266.200 300.400 C 265.696 300.617,265.622 300.744,266.000 300.744 C 266.330 300.744,266.960 300.589,267.400 300.400 C 267.904 300.183,267.978 300.056,267.600 300.056 C 267.270 300.056,266.640 300.211,266.200 300.400 M168.100 301.100 C 185.645 301.158,214.355 301.158,231.900 301.100 C 249.445 301.042,235.090 300.995,200.000 300.995 C 164.910 300.995,150.555 301.042,168.100 301.100 "
            stroke="none" fill="#ed9595" fill-rule="evenodd"></path>
        <path id="path4"
            d="M193.400 84.014 C 192.702 84.201,193.705 84.242,195.800 84.114 C 197.780 83.993,199.475 83.828,199.567 83.747 C 199.885 83.467,194.594 83.696,193.400 84.014 M200.433 83.747 C 200.525 83.828,202.220 83.993,204.200 84.114 C 206.295 84.242,207.298 84.201,206.600 84.014 C 205.406 83.696,200.115 83.467,200.433 83.747 M188.800 84.800 L 187.800 85.120 188.800 85.154 C 189.350 85.173,190.070 85.013,190.400 84.800 C 191.164 84.306,190.342 84.306,188.800 84.800 M209.400 84.800 C 209.840 84.989,210.560 85.144,211.000 85.144 L 211.800 85.144 211.000 84.800 C 210.560 84.611,209.840 84.456,209.400 84.456 L 208.600 84.456 209.400 84.800 M219.158 87.637 C 220.125 88.066,220.988 88.345,221.075 88.258 C 221.248 88.086,218.165 86.782,217.692 86.828 C 217.531 86.844,218.191 87.208,219.158 87.637 M176.665 89.047 C 176.040 89.386,175.606 89.739,175.700 89.833 C 175.887 90.020,178.400 88.846,178.400 88.571 C 178.400 88.262,177.818 88.422,176.665 89.047 M225.600 90.767 C 226.563 91.552,227.200 91.808,227.200 91.410 C 227.200 91.306,226.615 90.935,225.900 90.586 L 224.600 89.952 225.600 90.767 M172.400 91.503 C 167.774 94.561,159.200 102.482,159.200 103.698 C 159.200 103.889,160.258 102.820,161.552 101.323 C 164.557 97.844,169.707 93.474,172.500 92.032 C 173.105 91.720,173.600 91.315,173.600 91.132 C 173.600 90.711,173.596 90.713,172.400 91.503 M228.801 92.701 C 228.801 92.865,229.566 93.492,230.501 94.094 C 233.443 95.988,239.881 102.521,241.491 105.246 C 241.866 105.881,242.313 106.400,242.486 106.400 C 243.143 106.400,239.674 102.057,236.409 98.791 C 233.175 95.558,228.799 92.055,228.801 92.701 M156.893 106.700 C 155.857 108.196,155.521 108.800,155.723 108.800 C 155.817 108.800,156.370 108.080,156.953 107.200 C 158.136 105.412,158.084 104.979,156.893 106.700 M242.800 106.929 C 242.800 107.294,244.845 110.400,245.086 110.400 C 245.279 110.400,243.692 107.648,243.136 107.020 C 242.951 106.811,242.800 106.770,242.800 106.929 M194.938 107.906 C 194.684 108.068,196.962 108.200,200.000 108.200 C 203.038 108.200,205.316 108.068,205.062 107.906 C 204.808 107.744,202.530 107.612,200.000 107.612 C 197.470 107.612,195.192 107.744,194.938 107.906 M191.600 108.818 C 191.162 109.115,191.324 109.152,192.200 108.956 C 193.671 108.627,193.990 108.398,192.967 108.406 C 192.545 108.409,191.930 108.595,191.600 108.818 M153.800 112.000 C 153.002 113.585,152.421 114.955,152.510 115.043 C 152.599 115.132,153.318 113.902,154.109 112.309 C 154.900 110.716,155.480 109.347,155.399 109.266 C 155.318 109.184,154.598 110.415,153.800 112.000 M181.062 115.300 L 178.140 118.200 180.970 115.622 C 182.526 114.204,183.971 112.899,184.180 112.722 C 184.389 112.545,184.430 112.400,184.272 112.400 C 184.114 112.400,182.669 113.705,181.062 115.300 M217.285 113.955 C 218.322 114.880,220.012 116.573,221.041 117.718 C 222.070 118.863,222.541 119.260,222.087 118.600 C 221.212 117.327,217.542 113.720,216.200 112.814 C 215.760 112.516,216.248 113.030,217.285 113.955 M151.000 118.400 C 150.850 118.873,150.817 119.350,150.927 119.460 C 151.037 119.570,151.250 119.273,151.400 118.800 C 151.550 118.327,151.583 117.850,151.473 117.740 C 151.363 117.630,151.150 117.927,151.000 118.400 M150.273 120.553 C 150.123 120.945,150.011 121.566,150.025 121.933 C 150.042 122.375,150.181 122.274,150.437 121.634 C 150.649 121.103,150.761 120.482,150.685 120.254 C 150.609 120.027,150.424 120.161,150.273 120.553 M249.444 121.400 C 249.773 122.871,250.002 123.190,249.994 122.167 C 249.991 121.745,249.805 121.130,249.582 120.800 C 249.285 120.362,249.248 120.524,249.444 121.400 M175.421 122.224 C 175.052 122.788,174.811 123.432,174.885 123.656 C 174.960 123.881,175.329 123.420,175.704 122.632 C 176.503 120.956,176.374 120.770,175.421 122.224 M149.378 124.178 C 149.227 124.981,149.194 125.727,149.304 125.837 C 149.414 125.947,149.627 125.381,149.778 124.578 C 149.928 123.775,149.962 123.028,149.852 122.918 C 149.742 122.808,149.528 123.375,149.378 124.178 M250.262 124.600 C 250.396 125.480,250.572 126.275,250.653 126.367 C 250.956 126.710,250.729 124.568,250.381 123.800 C 250.129 123.242,250.093 123.485,250.262 124.600 M148.653 128.036 C 148.514 128.731,148.425 130.403,148.456 131.750 C 148.507 134.004,148.537 133.913,148.829 130.607 C 149.159 126.878,149.089 125.856,148.653 128.036 M250.986 131.658 C 250.994 134.221,251.135 136.235,251.300 136.135 C 251.661 135.916,251.615 129.891,251.239 128.200 C 251.092 127.540,250.978 129.096,250.986 131.658 M172.656 129.684 C 172.521 130.188,172.430 131.140,172.453 131.800 C 172.481 132.628,172.597 132.384,172.826 131.013 C 173.176 128.923,173.074 128.126,172.656 129.684 M227.088 130.800 C 227.211 132.010,227.377 133.075,227.456 133.167 C 227.753 133.511,227.530 130.167,227.204 129.400 C 226.992 128.902,226.949 129.431,227.088 130.800 M249.871 137.500 C 249.244 138.128,248.183 138.200,239.614 138.200 C 234.358 138.200,230.315 138.345,230.631 138.521 C 232.134 139.363,249.135 138.645,250.079 137.700 C 250.573 137.205,250.886 136.800,250.775 136.800 C 250.663 136.800,250.256 137.115,249.871 137.500 M148.400 150.100 C 148.400 150.265,153.800 150.400,160.400 150.400 C 167.000 150.400,172.400 150.265,172.400 150.100 C 172.400 149.935,167.000 149.800,160.400 149.800 C 153.800 149.800,148.400 149.935,148.400 150.100 M135.400 161.645 C 133.107 161.880,129.850 162.915,129.000 163.680 C 128.781 163.877,129.861 163.551,131.400 162.955 L 134.200 161.871 200.200 161.891 C 236.500 161.901,265.660 161.846,265.000 161.769 C 262.827 161.513,137.855 161.394,135.400 161.645 M266.400 162.174 C 266.400 162.277,266.985 162.531,267.700 162.738 C 268.415 162.944,269.360 163.234,269.800 163.382 C 270.296 163.549,270.219 163.434,269.600 163.081 C 268.522 162.466,266.400 161.865,266.400 162.174 M127.300 164.488 C 126.805 164.727,126.400 165.079,126.400 165.270 C 126.400 165.462,126.850 165.324,127.400 164.963 C 128.867 164.002,128.816 163.757,127.300 164.488 M123.877 167.470 C 122.849 168.499,122.095 169.429,122.204 169.537 C 122.312 169.645,122.445 169.655,122.500 169.559 C 122.555 169.463,123.402 168.533,124.383 167.493 C 126.685 165.050,126.314 165.034,123.877 167.470 M275.620 167.421 C 276.599 168.533,277.481 169.381,277.581 169.307 C 277.680 169.233,276.879 168.323,275.801 167.286 L 273.840 165.400 275.620 167.421 M119.000 175.200 C 118.850 175.673,118.817 176.150,118.927 176.260 C 119.037 176.370,119.250 176.073,119.400 175.600 C 119.550 175.127,119.583 174.650,119.473 174.540 C 119.363 174.430,119.150 174.727,119.000 175.200 M118.250 178.450 C 117.918 180.110,118.005 283.136,118.340 284.324 C 118.483 284.832,118.600 260.937,118.600 231.224 C 118.600 201.511,118.578 177.200,118.550 177.200 C 118.522 177.200,118.388 177.763,118.250 178.450 M281.400 231.200 C 281.400 260.706,281.517 284.432,281.660 283.924 C 281.803 283.416,281.920 259.690,281.920 231.200 C 281.920 202.710,281.803 178.984,281.660 178.477 C 281.517 177.969,281.400 201.694,281.400 231.200 M196.476 197.940 C 195.968 198.083,197.554 198.200,200.000 198.200 C 202.446 198.200,204.032 198.083,203.524 197.940 C 203.016 197.797,201.430 197.680,200.000 197.680 C 198.570 197.680,196.984 197.797,196.476 197.940 M189.360 201.141 C 188.502 201.769,187.440 202.712,187.000 203.236 C 186.560 203.760,186.922 203.561,187.804 202.794 C 188.686 202.027,189.856 201.094,190.404 200.721 C 190.952 200.348,191.292 200.033,191.160 200.021 C 191.028 200.009,190.218 200.514,189.360 201.141 M209.600 200.657 C 210.150 201.039,211.577 202.352,212.772 203.576 C 214.671 205.520,214.778 205.584,213.628 204.087 C 212.382 202.465,210.528 200.855,209.200 200.240 C 208.870 200.088,209.050 200.275,209.600 200.657 M184.181 207.237 C 183.829 207.918,183.612 208.545,183.699 208.632 C 183.786 208.719,184.156 208.162,184.522 207.395 C 185.344 205.670,185.059 205.538,184.181 207.237 M215.478 207.395 C 215.844 208.162,216.214 208.719,216.301 208.632 C 216.484 208.449,215.270 206.000,214.996 206.000 C 214.895 206.000,215.112 206.628,215.478 207.395 M182.275 213.900 C 182.149 214.945,182.186 216.520,182.357 217.400 C 182.607 218.688,182.673 218.318,182.694 215.500 C 182.723 211.558,182.609 211.121,182.275 213.900 M217.331 215.400 C 217.334 218.489,217.378 218.725,217.640 217.061 C 217.808 215.994,217.806 214.374,217.637 213.461 C 217.392 212.146,217.329 212.550,217.331 215.400 M183.600 222.153 C 183.600 222.582,184.790 224.800,185.021 224.800 C 185.131 224.800,184.923 224.215,184.559 223.500 C 183.817 222.040,183.600 221.736,183.600 222.153 M215.478 223.405 C 215.112 224.172,214.895 224.800,214.996 224.800 C 215.270 224.800,216.484 222.351,216.301 222.168 C 216.214 222.081,215.844 222.638,215.478 223.405 M185.951 226.311 C 186.457 227.032,187.484 228.112,188.235 228.711 C 189.195 229.477,189.618 230.156,189.660 231.000 C 189.718 232.170,189.724 232.173,189.884 231.127 C 190.019 230.244,189.604 229.606,187.540 227.527 C 186.139 226.115,185.438 225.578,185.951 226.311 M212.276 227.650 C 210.391 229.605,209.983 230.261,210.116 231.130 C 210.269 232.125,210.284 232.112,210.340 230.946 C 210.380 230.112,210.717 229.484,211.345 229.073 C 212.148 228.547,215.125 225.161,214.734 225.220 C 214.660 225.231,213.554 226.324,212.276 227.650 M189.049 233.415 C 188.912 233.773,188.818 234.456,188.841 234.933 C 188.867 235.481,189.003 235.286,189.210 234.403 C 189.560 232.916,189.465 232.333,189.049 233.415 M210.658 234.000 C 210.975 235.725,211.202 236.051,211.194 234.767 C 211.191 234.235,211.011 233.530,210.794 233.200 C 210.518 232.778,210.477 233.015,210.658 234.000 M188.256 236.884 C 188.121 237.388,188.027 238.160,188.046 238.600 C 188.065 239.040,188.245 238.698,188.446 237.840 C 188.836 236.178,188.670 235.340,188.256 236.884 M211.462 237.400 C 211.596 238.280,211.772 239.075,211.853 239.167 C 212.156 239.510,211.929 237.368,211.581 236.600 C 211.329 236.042,211.293 236.285,211.462 237.400 M187.449 240.215 C 187.312 240.573,187.218 241.256,187.241 241.733 C 187.267 242.281,187.403 242.086,187.610 241.203 C 187.960 239.716,187.865 239.133,187.449 240.215 M212.258 240.800 C 212.575 242.525,212.802 242.851,212.794 241.567 C 212.791 241.035,212.611 240.330,212.394 240.000 C 212.118 239.578,212.077 239.815,212.258 240.800 M186.431 244.831 C 186.185 245.978,186.060 246.993,186.153 247.086 C 186.246 247.179,186.523 246.317,186.769 245.169 C 187.015 244.022,187.140 243.007,187.047 242.914 C 186.954 242.821,186.677 243.683,186.431 244.831 M213.063 244.200 C 213.201 245.080,213.465 246.160,213.650 246.600 C 213.864 247.108,213.895 246.815,213.737 245.800 C 213.599 244.920,213.335 243.840,213.150 243.400 C 212.936 242.892,212.905 243.185,213.063 244.200 M184.849 251.400 C 184.816 251.840,184.696 252.650,184.583 253.200 L 184.377 254.200 184.806 253.219 C 185.042 252.679,185.161 251.869,185.072 251.419 C 184.913 250.621,184.907 250.621,184.849 251.400 M214.828 251.633 C 214.844 252.165,215.019 252.960,215.219 253.400 C 215.471 253.958,215.507 253.715,215.338 252.600 C 215.055 250.743,214.787 250.236,214.828 251.633 M183.050 259.250 C 182.717 260.917,183.040 261.240,183.400 259.600 C 183.552 258.909,183.593 258.259,183.491 258.158 C 183.389 258.056,183.191 258.547,183.050 259.250 M216.468 258.600 C 216.462 259.040,216.611 259.760,216.800 260.200 C 217.238 261.219,217.238 260.168,216.800 258.800 C 216.543 257.996,216.477 257.957,216.468 258.600 M183.544 263.968 C 185.021 265.269,214.979 265.269,216.456 263.968 L 217.400 263.136 216.411 263.768 C 214.922 264.720,185.078 264.720,183.589 263.768 L 182.600 263.136 183.544 263.968 M118.812 286.400 C 118.812 286.730,118.987 287.270,119.200 287.600 C 119.545 288.133,119.588 288.133,119.588 287.600 C 119.588 287.270,119.413 286.730,119.200 286.400 C 118.855 285.867,118.812 285.867,118.812 286.400 M120.409 290.300 C 120.414 290.465,120.785 291.050,121.233 291.600 L 122.048 292.600 121.414 291.300 C 120.811 290.065,120.389 289.645,120.409 290.300 M278.614 291.035 C 278.241 291.604,278.027 292.161,278.139 292.272 C 278.250 292.383,278.629 291.918,278.981 291.237 C 279.759 289.733,279.544 289.615,278.614 291.035 M123.791 294.791 C 124.869 295.886,125.811 296.723,125.883 296.650 C 126.045 296.489,122.385 292.800,122.062 292.800 C 121.935 292.800,122.712 293.696,123.791 294.791 M275.506 295.011 C 274.684 295.775,274.154 296.400,274.327 296.400 C 274.501 296.400,275.254 295.770,276.000 295.000 C 277.741 293.203,277.443 293.210,275.506 295.011 M127.200 297.567 C 128.163 298.352,128.800 298.608,128.800 298.210 C 128.800 298.106,128.215 297.735,127.500 297.386 L 126.200 296.752 127.200 297.567 M272.200 297.600 C 271.540 298.037,271.180 298.392,271.400 298.388 C 271.801 298.382,273.976 296.823,273.600 296.812 C 273.490 296.808,272.860 297.163,272.200 297.600 M133.915 300.472 C 134.292 300.621,164.030 300.744,200.000 300.744 C 235.970 300.744,265.708 300.621,266.085 300.472 C 266.462 300.322,236.724 300.200,200.000 300.200 C 163.276 300.200,133.538 300.322,133.915 300.472 "
            stroke="none" fill="#f4b4b4" fill-rule="evenodd"></path>
    </g>
</svg>